<svg width="214" height="70" viewBox="0 0 214 70" fill="none" xmlns="http://www.w3.org/2000/svg">
<circle cx="44" cy="35" r="35" fill="#4766EA"/>
<path fill-rule="evenodd" clip-rule="evenodd" d="M44 15C47.3137 15 50 17.6863 50 21C50 26.6569 52.3431 29 58 29C61.3137 29 64 31.6863 64 35C64 38.2192 61.4647 40.8463 58.2818 40.9935L58.2821 40.9938C52.4529 41.2687 50.288 43.4092 49.9965 49.206C49.888 52.4243 47.2448 55 44 55C40.6863 55 38 52.3137 38 49C38 45.7587 40.5702 43.1177 43.7838 43.0038C49.5438 42.7166 51.698 40.5833 51.9995 34.851C51.9584 29.302 49.6069 27 44 27C40.6863 27 38 24.3137 38 21C38 17.6863 40.6863 15 44 15ZM36 35C36 38.3137 33.3137 41 30 41C26.6863 41 24 38.3137 24 35C24 31.6863 26.6863 29 30 29C33.3137 29 36 31.6863 36 35ZM44 39C46.2091 39 48 37.2091 48 35C48 32.7909 46.2091 31 44 31C41.7909 31 40 32.7909 40 35C40 37.2091 41.7909 39 44 39Z" fill="#00DBFE"/>
<path fill-rule="evenodd" clip-rule="evenodd" d="M44 15C47.3137 15 50 17.6863 50 21C50 26.6569 52.3431 29 58 29C61.3137 29 64 31.6863 64 35C64 38.2192 61.4647 40.8463 58.2818 40.9935L58.2821 40.9938C52.4529 41.2687 50.288 43.4092 49.9965 49.206C49.888 52.4243 47.2448 55 44 55C40.6863 55 38 52.3137 38 49C38 45.7587 40.5702 43.1177 43.7838 43.0038C49.5438 42.7166 51.698 40.5833 51.9995 34.851C51.9584 29.302 49.6069 27 44 27C40.6863 27 38 24.3137 38 21C38 17.6863 40.6863 15 44 15ZM36 35C36 38.3137 33.3137 41 30 41C26.6863 41 24 38.3137 24 35C24 31.6863 26.6863 29 30 29C33.3137 29 36 31.6863 36 35ZM44 39C46.2091 39 48 37.2091 48 35C48 32.7909 46.2091 31 44 31C41.7909 31 40 32.7909 40 35C40 37.2091 41.7909 39 44 39Z" fill="url(#paint0_linear_105_135)" fill-opacity="0.2"/>
<path d="M101.63 45.36C99.97 45.36 98.44 45.1 97.04 44.58C95.66 44.04 94.45 43.28 93.41 42.3C92.39 41.32 91.59 40.17 91.01 38.85C90.45 37.53 90.17 36.08 90.17 34.5C90.17 32.92 90.45 31.47 91.01 30.15C91.59 28.83 92.4 27.68 93.44 26.7C94.48 25.72 95.7 24.97 97.1 24.45C98.5 23.91 100.04 23.64 101.72 23.64C103.58 23.64 105.25 23.95 106.73 24.57C108.23 25.19 109.49 26.09 110.51 27.27L107.39 30.15C106.63 29.35 105.8 28.76 104.9 28.38C104 27.98 103.02 27.78 101.96 27.78C100.94 27.78 100.01 27.94 99.17 28.26C98.33 28.58 97.6 29.04 96.98 29.64C96.38 30.24 95.91 30.95 95.57 31.77C95.25 32.59 95.09 33.5 95.09 34.5C95.09 35.48 95.25 36.38 95.57 37.2C95.91 38.02 96.38 38.74 96.98 39.36C97.6 39.96 98.32 40.42 99.14 40.74C99.98 41.06 100.9 41.22 101.9 41.22C102.86 41.22 103.79 41.07 104.69 40.77C105.61 40.45 106.5 39.92 107.36 39.18L110.12 42.69C108.98 43.55 107.65 44.21 106.13 44.67C104.63 45.13 103.13 45.36 101.63 45.36ZM105.68 42.06V34.17H110.12V42.69L105.68 42.06ZM124.205 45V41.85L123.905 41.16V35.52C123.905 34.52 123.595 33.74 122.975 33.18C122.375 32.62 121.445 32.34 120.185 32.34C119.325 32.34 118.475 32.48 117.635 32.76C116.815 33.02 116.115 33.38 115.535 33.84L113.855 30.57C114.735 29.95 115.795 29.47 117.035 29.13C118.275 28.79 119.535 28.62 120.815 28.62C123.275 28.62 125.185 29.2 126.545 30.36C127.905 31.52 128.585 33.33 128.585 35.79V45H124.205ZM119.285 45.24C118.025 45.24 116.945 45.03 116.045 44.61C115.145 44.17 114.455 43.58 113.975 42.84C113.495 42.1 113.255 41.27 113.255 40.35C113.255 39.39 113.485 38.55 113.945 37.83C114.425 37.11 115.175 36.55 116.195 36.15C117.215 35.73 118.545 35.52 120.185 35.52H124.475V38.25H120.695C119.595 38.25 118.835 38.43 118.415 38.79C118.015 39.15 117.815 39.6 117.815 40.14C117.815 40.74 118.045 41.22 118.505 41.58C118.985 41.92 119.635 42.09 120.455 42.09C121.235 42.09 121.935 41.91 122.555 41.55C123.175 41.17 123.625 40.62 123.905 39.9L124.625 42.06C124.285 43.1 123.665 43.89 122.765 44.43C121.865 44.97 120.705 45.24 119.285 45.24ZM132.82 45V28.86H137.5V45H132.82ZM135.16 26.61C134.3 26.61 133.6 26.36 133.06 25.86C132.52 25.36 132.25 24.74 132.25 24C132.25 23.26 132.52 22.64 133.06 22.14C133.6 21.64 134.3 21.39 135.16 21.39C136.02 21.39 136.72 21.63 137.26 22.11C137.8 22.57 138.07 23.17 138.07 23.91C138.07 24.69 137.8 25.34 137.26 25.86C136.74 26.36 136.04 26.61 135.16 26.61ZM151.654 28.62C152.934 28.62 154.074 28.88 155.074 29.4C156.094 29.9 156.894 30.68 157.474 31.74C158.054 32.78 158.344 34.12 158.344 35.76V45H153.664V36.48C153.664 35.18 153.374 34.22 152.794 33.6C152.234 32.98 151.434 32.67 150.394 32.67C149.654 32.67 148.984 32.83 148.384 33.15C147.804 33.45 147.344 33.92 147.004 34.56C146.684 35.2 146.524 36.02 146.524 37.02V45H141.844V28.86H146.314V33.33L145.474 31.98C146.054 30.9 146.884 30.07 147.964 29.49C149.044 28.91 150.274 28.62 151.654 28.62ZM162.586 45V28.86H167.266V45H162.586ZM164.926 26.61C164.066 26.61 163.366 26.36 162.826 25.86C162.286 25.36 162.016 24.74 162.016 24C162.016 23.26 162.286 22.64 162.826 22.14C163.366 21.64 164.066 21.39 164.926 21.39C165.786 21.39 166.486 21.63 167.026 22.11C167.566 22.57 167.836 23.17 167.836 23.91C167.836 24.69 167.566 25.34 167.026 25.86C166.506 26.36 165.806 26.61 164.926 26.61ZM178.419 45.24C177.079 45.24 175.879 44.98 174.819 44.46C173.779 43.94 172.969 43.15 172.389 42.09C171.809 41.01 171.519 39.64 171.519 37.98V28.86H176.199V37.29C176.199 38.63 176.479 39.62 177.039 40.26C177.619 40.88 178.429 41.19 179.469 41.19C180.189 41.19 180.829 41.04 181.389 40.74C181.949 40.42 182.389 39.94 182.709 39.3C183.029 38.64 183.189 37.82 183.189 36.84V28.86H187.869V45H183.429V40.56L184.239 41.85C183.699 42.97 182.899 43.82 181.839 44.4C180.799 44.96 179.659 45.24 178.419 45.24ZM197.635 45.24C196.255 45.24 194.925 45.08 193.645 44.76C192.385 44.42 191.385 44 190.645 43.5L192.205 40.14C192.945 40.6 193.815 40.98 194.815 41.28C195.835 41.56 196.835 41.7 197.815 41.7C198.895 41.7 199.655 41.57 200.095 41.31C200.555 41.05 200.785 40.69 200.785 40.23C200.785 39.85 200.605 39.57 200.245 39.39C199.905 39.19 199.445 39.04 198.865 38.94C198.285 38.84 197.645 38.74 196.945 38.64C196.265 38.54 195.575 38.41 194.875 38.25C194.175 38.07 193.535 37.81 192.955 37.47C192.375 37.13 191.905 36.67 191.545 36.09C191.205 35.51 191.035 34.76 191.035 33.84C191.035 32.82 191.325 31.92 191.905 31.14C192.505 30.36 193.365 29.75 194.485 29.31C195.605 28.85 196.945 28.62 198.505 28.62C199.605 28.62 200.725 28.74 201.865 28.98C203.005 29.22 203.955 29.57 204.715 30.03L203.155 33.36C202.375 32.9 201.585 32.59 200.785 32.43C200.005 32.25 199.245 32.16 198.505 32.16C197.465 32.16 196.705 32.3 196.225 32.58C195.745 32.86 195.505 33.22 195.505 33.66C195.505 34.06 195.675 34.36 196.015 34.56C196.375 34.76 196.845 34.92 197.425 35.04C198.005 35.16 198.635 35.27 199.315 35.37C200.015 35.45 200.715 35.58 201.415 35.76C202.115 35.94 202.745 36.2 203.305 36.54C203.885 36.86 204.355 37.31 204.715 37.89C205.075 38.45 205.255 39.19 205.255 40.11C205.255 41.11 204.955 42 204.355 42.78C203.755 43.54 202.885 44.14 201.745 44.58C200.625 45.02 199.255 45.24 197.635 45.24Z" fill="url(#paint1_linear_105_135)"/>
<defs>
<linearGradient id="paint0_linear_105_135" x1="24" y1="23.5" x2="60.5" y2="46.5" gradientUnits="userSpaceOnUse">
<stop offset="0.373937" stop-color="#00FF29" stop-opacity="0.94"/>
<stop offset="1" stop-color="#00DBFE" stop-opacity="0"/>
</linearGradient>
<linearGradient id="paint1_linear_105_135" x1="163" y1="45" x2="91" y2="24" gradientUnits="userSpaceOnUse">
<stop stop-color="white"/>
<stop offset="1" stop-color="#01DBFC"/>
</linearGradient>
</defs>
</svg>
